<svg version="1.2" xmlns="http://www.w3.org/2000/svg" viewBox="0 0 800 800" width="800" height="800">
	<title>augmented-reality</title>
	<style>
		.s0 { fill: #ffffff } 
		.s1 { fill: none } 
	</style>
	<path class="s0" d="m686.18 227.64l-150-75q-2.6-1.3-5.44-1.97-2.83-0.67-5.74-0.67-2.91 0-5.74 0.67-2.84 0.67-5.44 1.97l-150 75c-2.07 1.03-3.98 2.35-5.69 3.9-1.7 1.56-3.18 3.35-4.4 5.32-1.21 1.96-2.15 4.09-2.78 6.31-0.63 2.22-0.95 4.52-0.95 6.83v175c0 2.31 0.32 4.61 0.95 6.83 0.63 2.22 1.57 4.35 2.78 6.31 1.22 1.97 2.7 3.76 4.4 5.32 1.71 1.55 3.62 2.87 5.69 3.9l150 75q2.6 1.3 5.44 1.97 2.83 0.67 5.74 0.67 2.91 0 5.74-0.67 2.84-0.67 5.44-1.97l150-75c2.07-1.03 3.98-2.35 5.69-3.9 1.7-1.56 3.18-3.35 4.4-5.32 1.21-1.96 2.15-4.09 2.78-6.31 0.63-2.22 0.95-4.52 0.95-6.83v-175c0-2.31-0.32-4.61-0.95-6.83-0.63-2.22-1.57-4.35-2.78-6.31-1.22-1.97-2.7-3.76-4.4-5.32-1.71-1.55-3.62-2.87-5.69-3.9zm-161.18-24.69l94.09 47.05-94.09 47.05-94.09-47.05zm-125 87.5l100 50v119.09l-100-50zm150 169.09v-119.09l100-50v119.09z"/>
	<path fill-rule="evenodd" class="s0" d="m337.5 650c-20.74 0-37.5-16.76-37.5-37.5 0-20.74 16.76-37.5 37.5-37.5 20.74 0 37.5 16.76 37.5 37.5 0 20.74-16.76 37.5-37.5 37.5z"/>
	<path class="s0" d="m500 750h-325c-6.56-0.01-13.06-1.31-19.13-3.82-6.06-2.52-11.57-6.2-16.21-10.84-4.64-4.64-8.32-10.15-10.84-16.21-2.51-6.07-3.81-12.57-3.82-19.13v-600c0.01-6.56 1.31-13.06 3.82-19.13 2.52-6.06 6.2-11.57 10.84-16.21 4.64-4.64 10.15-8.32 16.21-10.84 6.07-2.51 12.57-3.81 19.13-3.82h325v50h-325v600h325v-100h50v100c-0.01 6.56-1.31 13.06-3.82 19.13-2.52 6.06-6.2 11.57-10.84 16.21-4.64 4.64-10.15 8.32-16.21 10.84-6.07 2.51-12.57 3.81-19.13 3.82z"/>
	<path id="_Transparent_Rectangle_" fill-rule="evenodd" class="s1" d="m0 0h800v800h-800z"/>
</svg>