<svg version="1.2" xmlns="http://www.w3.org/2000/svg" viewBox="0 0 800 800" width="800" height="800">
	<title>processing</title>
	<style>
		.s0 { fill: none } 
		.s1 { fill: #ffffff } 
	</style>
	<g id="SVGRepo_bgCarrier">
	</g>
	<g id="SVGRepo_tracerCarrier">
	</g>
	<g id="SVGRepo_iconCarrier">
		<g id="Layer_2">
			<g id="invisible_box">
				<path fill-rule="evenodd" class="s0" d="m0 0h800v800h-800z"/>
			</g>
			<g id="Q3_icons">
				<g>
					<path class="s1" d="m423.3 91.7c-3.2-3.1-6.9-5.4-11.1-6.9-4.1-1.5-8.5-2.1-12.9-1.8-4.4 0.4-8.7 1.6-12.6 3.6-3.9 2.1-7.3 4.9-10 8.4-9 10.2-10.9 24.7-4.9 36.8 6 12.1 18.8 19.4 32.3 18.5 13.5-1 25-10 29.3-22.9 4.2-12.8 0.2-27-10.1-35.7z"/>
					<path class="s1" d="m525 140c-3.2 3.6-5.6 7.8-7.1 12.4-1.6 4.5-2.2 9.3-1.9 14.1 0.3 4.8 1.5 9.5 3.7 13.8 2.1 4.3 5 8.2 8.6 11.4 7.1 8.8 17.7 14 29 14.2 11.3 0.3 22.1-4.5 29.6-12.9 7.5-8.5 10.8-19.8 9.2-31-1.7-11.2-8.2-21.1-17.8-27-3.7-3.3-8.1-5.9-12.9-7.4-4.8-1.6-9.8-2.1-14.8-1.7-5 0.5-9.9 2-14.3 4.4-4.4 2.4-8.2 5.7-11.3 9.7z"/>
					<path class="s1" d="m698.3 320c11.4-14 13.4-33.3 5-49.3-8.3-15.9-25.4-25.4-43.3-24-17.9 1.4-33.3 13.3-39.1 30.4-5.8 17-0.9 35.9 12.4 47.9 4.6 4.1 9.9 7.2 15.6 9.2 5.8 1.9 11.9 2.7 18 2.2 6.1-0.4 12-2.1 17.4-5 5.4-2.8 10.2-6.7 14-11.4z"/>
					<path class="s1" d="m700 460c-11.4-12.2-27.4-18.9-44-18.5-16.7 0.4-32.4 7.8-43.1 20.5-10.8 12.7-15.6 29.4-13.3 45.9 2.3 16.5 11.5 31.2 25.4 40.4 11.9 8 26.3 11.2 40.5 9.3 14.1-2 27.1-9.2 36.3-20.1 9.3-10.9 14.2-24.8 13.9-39.1-0.4-14.3-5.9-27.9-15.7-38.4z"/>
					<path class="s1" d="m435 618.3c-19.9 23-23.9 55.8-10.2 83 13.7 27.1 42.5 43.3 72.9 40.9 30.3-2.4 56.2-22.9 65.4-51.9 9.3-29 0.2-60.7-23.1-80.3-7.4-6.5-16-11.4-25.3-14.5-9.3-3.1-19.2-4.3-29-3.6-9.8 0.8-19.3 3.5-28 8.1-8.7 4.5-16.4 10.8-22.7 18.3z"/>
					<path class="s1" d="m165 571.7c-7.1 8.3-12.5 18-15.9 28.5-3.4 10.4-4.8 21.4-4 32.3 0.8 11 3.7 21.7 8.5 31.5 4.8 9.9 11.5 18.7 19.7 26 25.6 21.9 61.7 26.3 91.7 11.2 30-15.2 48-46.8 45.7-80.3-2.4-33.6-24.6-62.4-56.5-73.1-31.8-10.8-67-1.4-89.2 23.9z"/>
					<path fill-rule="evenodd" class="s1" d="m128.8 460.7c-50.7 4.1-94.9-33.6-99-84.3-4.1-50.7 33.6-94.9 84.3-99 50.7-4.1 95 33.6 99 84.3 4.1 50.7-33.6 95-84.3 99z"/>
				</g>
			</g>
		</g>
	</g>
</svg>