<?xml version="1.0" encoding="UTF-8"?>
<svg id="Layer_1" data-name="Layer 1" xmlns="http://www.w3.org/2000/svg" viewBox="0 0 180.3 57.21">
  <defs>
    <style>
      .cls-1 {
        fill: #fff;
      }
    </style>
  </defs>
  <path class="cls-1" d="m48.4,20.91h7.76C52.81,8.85,41.74,0,28.6,0,12.8,0,0,12.8,0,28.6s12.8,28.61,28.6,28.61c13.1,0,24.14-8.8,27.54-20.82h-7.74v-15.49Zm-16.97,15.49h-12.28v-1.87l9.36-11.45h-9.14v-2.16h12.04v1.88l-9.12,11.45h9.14v2.16Zm13.78,0h-10.62v-15.49h10.42v2.16h-7.98v4.41h6.92v2.03h-6.92v4.74h8.18v2.16Zm11.46-13.32h-5.83v4.41h6.34c-.05-1.5-.23-2.97-.51-4.41Zm-5.83,6.43v4.74h5.81c.31-1.54.49-3.12.54-4.74h-6.35Z"/>
  <g>
    <path class="cls-1" d="m80.68,29.91c-.53-.7-1.24-1.19-2.14-1.45.72-.33,1.28-.83,1.68-1.51.39-.67.59-1.39.59-2.17,0-.67-.15-1.31-.43-1.93-.29-.62-.71-1.12-1.25-1.51-.54-.39-1.18-.59-1.92-.59h-8.15v15.8h7.54c.89,0,1.71-.16,2.45-.49.74-.33,1.33-.79,1.77-1.4.44-.61.65-1.34.65-2.18,0-1.01-.27-1.87-.79-2.57Zm-9.13-7h4.72c.4,0,.75.1,1.06.3.3.2.55.47.72.82.18.35.27.75.27,1.22s-.1.84-.29,1.19c-.19.35-.45.62-.78.82-.33.2-.7.3-1.11.3h-4.58v-4.65Zm7.06,10.29c-.2.36-.47.65-.83.87-.35.21-.74.32-1.19.32h-5.05v-4.83h5.21c.43,0,.8.11,1.12.34.32.23.57.53.76.89.18.36.28.77.28,1.22s-.1.83-.3,1.19Z"/>
    <path class="cls-1" d="m95.64,20.75v8.01c0,.71-.07,1.4-.22,2.07-.15.67-.38,1.27-.7,1.81-.32.54-.76.97-1.31,1.29-.56.32-1.25.48-2.08.48s-1.5-.15-2.06-.47c-.56-.31-1-.74-1.33-1.27-.33-.53-.56-1.14-.71-1.81-.15-.68-.22-1.38-.22-2.11v-8.01h-2.49v8.01c0,1.03.12,2.01.37,2.96.24.95.63,1.79,1.16,2.54.53.74,1.22,1.33,2.09,1.76.87.43,1.93.64,3.2.64s2.28-.21,3.14-.62c.86-.42,1.56-.98,2.1-1.7.54-.72.94-1.56,1.2-2.52.26-.95.39-1.98.39-3.06v-8.01h-2.52Z"/>
    <path class="cls-1" d="m112.62,29.85c-.42-.58-1.01-1.04-1.8-1.39-.79-.35-1.72-.65-2.78-.9-.88-.22-1.6-.43-2.18-.62-.58-.19-1.01-.43-1.29-.72-.28-.29-.42-.68-.42-1.19,0-.68.25-1.21.76-1.6.5-.39,1.28-.58,2.31-.58.47,0,.94.06,1.38.16.45.1.86.24,1.25.4.39.17.72.34,1,.53.28.18.5.36.65.52l1.13-2.05c-.46-.34-.97-.64-1.52-.91-.56-.27-1.16-.48-1.79-.63-.64-.15-1.31-.24-2.02-.24-1.08,0-2.06.18-2.93.54-.87.36-1.55.9-2.06,1.62s-.76,1.59-.76,2.63c0,.82.18,1.48.53,2.01.35.52.87.95,1.57,1.29.7.33,1.57.64,2.61.92.9.22,1.68.44,2.34.66.65.22,1.15.49,1.49.81.34.32.51.74.51,1.28,0,.65-.27,1.15-.79,1.49s-1.29.52-2.28.52c-.59,0-1.18-.07-1.75-.21-.57-.14-1.1-.32-1.58-.52-.48-.21-.91-.43-1.27-.66-.36-.23-.64-.44-.83-.63l-1.13,2.14c.59.46,1.24.85,1.95,1.17.71.32,1.45.56,2.23.72s1.56.24,2.35.24,1.55-.09,2.25-.25c.7-.17,1.31-.44,1.84-.8.53-.36.95-.83,1.25-1.41.3-.58.45-1.26.45-2.06,0-.95-.21-1.71-.62-2.28Z"/>
    <path class="cls-1" d="m116.4,20.75v15.8h2.49v-15.8h-2.49Z"/>
    <path class="cls-1" d="m134.11,20.78v11.39l-8.94-11.42h-2.05v15.8h2.49v-11.17l8.83,11.17h2.18v-15.77h-2.52Z"/>
    <path class="cls-1" d="m143.35,34.35v-4.83h7.05v-2.07h-7.05v-4.5h8.14v-2.2h-10.63v15.8h10.83v-2.2h-8.34Z"/>
    <path class="cls-1" d="m165.42,29.85c-.42-.58-1.01-1.04-1.8-1.39-.78-.35-1.71-.65-2.78-.9-.87-.22-1.6-.43-2.18-.62-.58-.19-1.01-.43-1.29-.72-.28-.29-.42-.68-.42-1.19,0-.68.25-1.21.76-1.6.5-.39,1.28-.58,2.31-.58.47,0,.93.06,1.38.16.45.1.86.24,1.25.4.39.17.72.34,1,.53.28.18.5.36.65.52l1.13-2.05c-.46-.34-.97-.64-1.52-.91-.56-.27-1.15-.48-1.79-.63-.64-.15-1.31-.24-2.03-.24-1.08,0-2.05.18-2.92.54-.87.36-1.55.9-2.06,1.62-.5.72-.76,1.59-.76,2.63,0,.82.18,1.48.52,2.01.35.52.87.95,1.57,1.29.7.33,1.56.64,2.6.92.9.22,1.68.44,2.34.66.65.22,1.15.49,1.49.81.34.32.51.74.51,1.28,0,.65-.27,1.15-.79,1.49-.53.35-1.29.52-2.28.52-.59,0-1.18-.07-1.75-.21-.57-.14-1.1-.32-1.58-.52-.48-.21-.91-.43-1.27-.66-.36-.23-.64-.44-.83-.63l-1.14,2.14c.59.46,1.25.85,1.95,1.17.71.32,1.45.56,2.23.72.78.16,1.56.24,2.35.24s1.55-.09,2.25-.25c.7-.17,1.31-.44,1.85-.8.53-.36.95-.83,1.25-1.41.3-.58.45-1.26.45-2.06,0-.95-.21-1.71-.62-2.28Z"/>
    <path class="cls-1" d="m179.68,29.85c-.42-.58-1.02-1.04-1.81-1.39-.78-.35-1.71-.65-2.78-.9-.87-.22-1.6-.43-2.18-.62-.58-.19-1.01-.43-1.29-.72-.28-.29-.42-.68-.42-1.19,0-.68.25-1.21.76-1.6.5-.39,1.28-.58,2.31-.58.47,0,.93.06,1.38.16s.86.24,1.25.4c.39.17.72.34,1,.53.28.18.5.36.64.52l1.14-2.05c-.46-.34-.97-.64-1.53-.91-.56-.27-1.15-.48-1.79-.63-.64-.15-1.31-.24-2.02-.24-1.09,0-2.06.18-2.93.54-.87.36-1.55.9-2.06,1.62s-.76,1.59-.76,2.63c0,.82.18,1.48.52,2.01.35.52.87.95,1.57,1.29.7.33,1.56.64,2.6.92.91.22,1.69.44,2.34.66.65.22,1.15.49,1.49.81.34.32.51.74.51,1.28,0,.65-.26,1.15-.79,1.49-.53.35-1.29.52-2.28.52-.59,0-1.18-.07-1.75-.21-.57-.14-1.1-.32-1.58-.52-.48-.21-.9-.43-1.27-.66-.36-.23-.64-.44-.83-.63l-1.13,2.14c.59.46,1.24.85,1.95,1.17.7.32,1.45.56,2.23.72s1.56.24,2.34.24,1.55-.09,2.25-.25c.7-.17,1.31-.44,1.85-.8.53-.36.95-.83,1.25-1.41.3-.58.45-1.26.45-2.06,0-.95-.21-1.71-.62-2.28Z"/>
  </g>
</svg>