<svg version="1.2" xmlns="http://www.w3.org/2000/svg" viewBox="0 0 800 800" width="800" height="800">
	<title>enterprise-svgrepo-com</title>
	<style>
		.s0 { fill: #ffffff } 
		.s1 { fill: none } 
	</style>
	<path fill-rule="evenodd" class="s0" d="m200 200h50v100h-50z"/>
	<path fill-rule="evenodd" class="s0" d="m200 350h50v100h-50z"/>
	<path fill-rule="evenodd" class="s0" d="m350 200h50v100h-50z"/>
	<path fill-rule="evenodd" class="s0" d="m350 350h50v100h-50z"/>
	<path fill-rule="evenodd" class="s0" d="m200 500h50v100h-50z"/>
	<path fill-rule="evenodd" class="s0" d="m350 500h50v100h-50z"/>
	<path class="s0" d="m750 350c0-6.57-1.29-13.07-3.81-19.13-2.51-6.07-6.19-11.58-10.83-16.23-4.65-4.64-10.16-8.32-16.23-10.83-6.06-2.52-12.56-3.81-19.13-3.81h-150v-200c0-6.57-1.29-13.07-3.81-19.13-2.51-6.07-6.19-11.58-10.83-16.23-4.65-4.64-10.16-8.32-16.23-10.83-6.06-2.52-12.56-3.81-19.13-3.81h-400c-6.57 0-13.07 1.29-19.13 3.81-6.07 2.51-11.58 6.19-16.23 10.83-4.64 4.65-8.32 10.16-10.83 16.23-2.52 6.06-3.81 12.56-3.81 19.13v650h700zm-650-250h400v600h-400zm450 600v-350h150v350z"/>
	<path id="_Transparent_Rectangle_" fill-rule="evenodd" class="s1" d="m0 0h800v800h-800z"/>
</svg>