<svg version="1.2" xmlns="http://www.w3.org/2000/svg" viewBox="0 0 800 800" width="800" height="800">
	<title>deployment-policy-svgrepo-com</title>
	<style>
		.s0 { fill: #ffffff } 
		.s1 { fill: none } 
	</style>
	<path fill-rule="evenodd" class="s0" d="m475 400v-50h179.27l-57.32-57.32 35.35-35.36 117.7 117.68-117.7 117.68-35.35-35.36 57.32-57.32h-179.27z"/>
	<path fill-rule="evenodd" class="s0" d="m425 300h-50v-154.3l-57.32 57.33-35.36-35.36 117.68-117.67 117.68 117.67-35.36 35.36-57.32-57.33v154.3z"/>
	<path class="s0" d="m425 502.53v-52.53c-0.01-13.13-2.61-26.12-7.64-38.25-5.03-12.13-12.4-23.14-21.68-32.43-9.29-9.28-20.3-16.65-32.43-21.68-12.13-5.03-25.12-7.63-38.25-7.64h-179.3l57.33-57.32-35.36-35.35-117.67 117.67 117.67 117.68 35.36-35.35-57.33-57.33h179.3c6.56 0.01 13.06 1.31 19.12 3.82 6.07 2.52 11.58 6.2 16.22 10.84 4.64 4.64 8.32 10.15 10.84 16.22 2.51 6.06 3.81 12.56 3.82 19.12v52.53c-62.87 12.83-105.82 71.19-99.37 135.04 6.45 63.84 60.2 112.43 124.37 112.43 64.17 0 117.92-48.59 124.37-112.43 6.45-63.85-36.5-122.21-99.37-135.04zm-25 197.47c-30.33 0-57.68-18.27-69.29-46.3-11.61-28.02-5.19-60.28 16.26-81.73 21.45-21.45 53.71-27.87 81.73-16.26 28.03 11.61 46.3 38.96 46.3 69.29-0.01 9.85-1.96 19.59-5.73 28.69-3.77 9.09-9.3 17.36-16.26 24.32-6.96 6.96-15.23 12.49-24.32 16.26-9.1 3.77-18.84 5.72-28.69 5.73z"/>
	<path id="_Transparent_Rectangle_" fill-rule="evenodd" class="s1" d="m0 0h800v800h-800z"/>
</svg>