<svg version="1.2" xmlns="http://www.w3.org/2000/svg" viewBox="0 0 800 800" width="800" height="800">
	<title>hybrid-networking-svgrepo-com</title>
	<style>
		.s0 { fill: #ffffff } 
		.s1 { fill: none } 
	</style>
	<path class="s0" d="m425 604.59v-104.59h-50v104.59c-34.44 12.18-55.1 47.39-48.92 83.39 6.18 36 37.39 62.32 73.92 62.32 36.53 0 67.74-26.32 73.92-62.32 6.18-36-14.48-71.21-48.92-83.39z"/>
	<path class="s0" d="m650 300c-10.98 0.03-21.88 1.88-32.26 5.45-10.38 3.58-20.1 8.85-28.76 15.59-8.67 6.74-16.17 14.86-22.19 24.04-6.03 9.18-10.5 19.29-13.24 29.92h-307.1c-12.59-48.76-59.47-80.55-109.43-74.2-49.95 6.34-87.4 48.84-87.4 99.2 0 50.36 37.45 92.86 87.4 99.2 49.96 6.35 96.84-25.44 109.43-74.2h307.1c9.6 36.86 39.34 65.05 76.66 72.66 37.33 7.61 75.73-6.68 99-36.84 23.26-30.15 27.35-70.92 10.52-105.09-16.83-34.18-51.64-55.79-89.73-55.73zm-500 150c-20.22 0-38.45-12.18-46.19-30.87-7.74-18.68-3.47-40.19 10.83-54.49 14.3-14.3 35.81-18.57 54.49-10.83 18.69 7.74 30.87 25.97 30.87 46.19-0.01 6.56-1.31 13.06-3.82 19.12-2.52 6.07-6.2 11.58-10.84 16.22-4.64 4.64-10.15 8.32-16.22 10.84-6.06 2.51-12.56 3.81-19.12 3.82zm500 0c-20.22 0-38.45-12.18-46.19-30.87-7.74-18.68-3.47-40.19 10.83-54.49 14.3-14.3 35.81-18.57 54.49-10.83 18.69 7.74 30.87 25.97 30.87 46.19-0.01 6.56-1.31 13.06-3.82 19.12-2.52 6.07-6.2 11.58-10.84 16.22-4.64 4.64-10.15 8.32-16.22 10.84-6.06 2.51-12.56 3.81-19.12 3.82z"/>
	<path class="s0" d="m475 125c0.11-28.06-15.44-53.83-40.32-66.8-24.88-12.97-54.92-10.98-77.86 5.18-22.94 16.15-34.95 43.75-31.12 71.55 3.83 27.79 22.85 51.13 49.3 60.48v104.59h50v-104.59c7.25-2.55 14.07-6.2 20.21-10.82 6.14-4.63 11.53-10.17 15.98-16.44 4.45-6.27 7.91-13.18 10.25-20.5 2.34-7.32 3.54-14.96 3.56-22.65z"/>
	<path id="_Transparent_Rectangle_" fill-rule="evenodd" class="s1" d="m0 0h800v800h-800z"/>
</svg>