<svg xmlns="http://www.w3.org/2000/svg" width="275" height="25" viewBox="0 0 275 25" fill="none"><path d="M27.2796 20.3729H42.7896V24.2403H46.7096V0H42.7896V16.4857H27.2796V0H23.3496V24.2403H27.2796V20.3729Z" fill="#636A69"></path><path d="M19.4298 0H15.5098V9.67835H19.4298V0Z" fill="#636A69"></path><path d="M3.92 9.24425V0H0V10.6156L11.03 24.2403H16.06L3.92 9.24425Z" fill="#636A69"></path><path d="M70.4605 5.2781C70.3805 5.41622 70.2805 5.52474 70.1805 5.5938C70.0805 5.66286 69.9605 5.70233 69.8205 5.70233C69.6605 5.70233 69.4705 5.6234 69.2605 5.46555C69.0405 5.3077 68.7705 5.13011 68.4505 4.94266C68.1305 4.75521 67.7405 4.57763 67.2805 4.41978C66.8205 4.26192 66.2705 4.183 65.6205 4.183C65.0105 4.183 64.4705 4.26192 64.0105 4.42964C63.5505 4.58749 63.1605 4.81441 62.8405 5.09065C62.5205 5.36689 62.2905 5.69246 62.1305 6.06736C61.9705 6.44226 61.8905 6.84676 61.8905 7.28086C61.8905 7.83334 62.0305 8.29703 62.3105 8.66207C62.5905 9.0271 62.9505 9.34281 63.4105 9.59932C63.8705 9.85583 64.3805 10.0827 64.9605 10.2702C65.5405 10.4576 66.1305 10.655 66.7405 10.8621C67.3505 11.0693 67.9405 11.2962 68.5205 11.5527C69.1005 11.8093 69.6105 12.1348 70.0705 12.5196C70.5205 12.9044 70.8905 13.3878 71.1705 13.9501C71.4505 14.5125 71.5805 15.213 71.5805 16.0417C71.5805 16.9099 71.4305 17.7287 71.1305 18.4983C70.8305 19.2579 70.3905 19.9288 69.8105 20.4912C69.2305 21.0535 68.5205 21.4975 67.6805 21.823C66.8405 22.1486 65.8805 22.3065 64.8105 22.3065C63.4905 22.3065 62.3005 22.0697 61.2305 21.606C60.1605 21.1423 59.2405 20.5109 58.4805 19.7118L59.2705 18.4292C59.3405 18.3305 59.4405 18.2418 59.5405 18.1727C59.6505 18.1036 59.7705 18.0642 59.9005 18.0642C60.0205 18.0642 60.1605 18.1135 60.3105 18.2122C60.4705 18.3108 60.6405 18.4292 60.8405 18.5772C61.0405 18.7252 61.2605 18.8929 61.5205 19.0606C61.7705 19.2382 62.0605 19.3961 62.3905 19.544C62.7105 19.692 63.0805 19.8104 63.5005 19.9091C63.9105 20.0077 64.3805 20.0571 64.9005 20.0571C65.5505 20.0571 66.1305 19.9683 66.6305 19.7907C67.1405 19.6131 67.5705 19.3665 67.9205 19.0508C68.2705 18.735 68.5405 18.3503 68.7305 17.9063C68.9205 17.4624 69.0105 16.9691 69.0105 16.4166C69.0105 15.8148 68.8705 15.3215 68.6005 14.9367C68.3205 14.552 67.9605 14.2264 67.5105 13.9699C67.0605 13.7134 66.5405 13.4864 65.9605 13.3089C65.3805 13.1313 64.7805 12.9438 64.1805 12.7564C63.5805 12.5689 62.9905 12.342 62.4005 12.0954C61.8205 11.8487 61.3005 11.5231 60.8505 11.1187C60.4005 10.724 60.0405 10.2209 59.7605 9.62892C59.4805 9.0271 59.3405 8.28717 59.3405 7.40911C59.3405 6.70864 59.4805 6.0279 59.7605 5.36689C60.0405 4.70588 60.4405 4.1238 60.9705 3.61078C61.5005 3.09776 62.1505 2.69326 62.9305 2.38742C63.7005 2.08158 64.5905 1.93359 65.6005 1.93359C66.7305 1.93359 67.7505 2.11118 68.6805 2.46635C69.6105 2.82152 70.4205 3.32467 71.1305 3.99555L70.4705 5.2781H70.4605Z" fill="#636A69"></path><path d="M87.1905 14.6916L84.0205 6.58189C83.9305 6.34511 83.8305 6.059 83.7205 5.74329C83.6205 5.41772 83.5205 5.08229 83.4205 4.71725C83.2205 5.46705 83.0205 6.09846 82.8105 6.59175L79.6405 14.6817H87.1805L87.1905 14.6916ZM92.8805 22.0909H90.7705C90.5305 22.0909 90.3305 22.0317 90.1805 21.9133C90.0305 21.7949 89.9205 21.6371 89.8405 21.4595L87.9505 16.645H78.8905L77.0005 21.4595C76.9405 21.6272 76.8405 21.7752 76.6805 21.9035C76.5205 22.0317 76.3205 22.1008 76.0905 22.1008H73.9805L82.0605 2.17188H84.8205L92.9005 22.1008L92.8805 22.0909Z" fill="#636A69"></path><path d="M102.551 11.8109C103.341 11.8109 104.041 11.7122 104.641 11.5248C105.251 11.3373 105.751 11.0709 106.161 10.7158C106.571 10.3705 106.881 9.95609 107.081 9.47267C107.291 8.98924 107.391 8.45649 107.391 7.87441C107.391 6.69051 107.001 5.79272 106.211 5.19091C105.421 4.5891 104.241 4.28326 102.661 4.28326H99.6707V11.801H102.551V11.8109ZM111.881 22.0812H109.461C108.961 22.0812 108.601 21.8937 108.361 21.5089L103.121 14.3858C102.961 14.1589 102.791 14.0011 102.611 13.9024C102.431 13.8038 102.141 13.7544 101.761 13.7544H99.6907V22.0713H96.9707V2.16211H102.681C103.961 2.16211 105.061 2.29037 105.991 2.54688C106.921 2.80339 107.691 3.16842 108.291 3.65185C108.901 4.13527 109.341 4.71735 109.641 5.39809C109.931 6.07883 110.081 6.8385 110.081 7.68696C110.081 8.38743 109.971 9.04844 109.741 9.66012C109.511 10.2718 109.191 10.8243 108.761 11.3077C108.331 11.7911 107.811 12.2055 107.201 12.5508C106.581 12.8961 105.891 13.1526 105.111 13.3302C105.461 13.5275 105.761 13.8038 106.011 14.1787L111.901 22.091L111.881 22.0812Z" fill="#636A69"></path><path d="M118.75 2.16016H116.02V22.0891H118.75V2.16016Z" fill="#636A69"></path><path d="M138.98 4.42929H132.44V22.0891H129.72V4.42929H123.17V2.16016H138.98V4.42929Z" fill="#636A69"></path><path d="M152.13 14.6896L148.96 6.57993C148.87 6.34315 148.77 6.05705 148.66 5.74134C148.56 5.41577 148.46 5.08033 148.36 4.7153C148.16 5.4651 147.96 6.09651 147.75 6.5898L144.58 14.6798H152.12L152.13 14.6896ZM157.82 22.089H155.71C155.47 22.089 155.27 22.0298 155.12 21.9114C154.97 21.793 154.86 21.6351 154.78 21.4576L152.89 16.643H143.83L141.94 21.4576C141.88 21.6253 141.78 21.7733 141.62 21.9015C141.46 22.0298 141.26 22.0988 141.03 22.0988H138.92L147 2.16992H149.76L157.84 22.0988L157.82 22.089Z" fill="#636A69"></path><path d="M185.95 2.16016V22.0891H183.22V13.0224H172.32V22.0891H169.59V2.16016H172.32V11.0492H183.22V2.16016H185.95Z" fill="#636A69"></path><path d="M203.251 14.6896L200.081 6.57993C199.991 6.34315 199.891 6.05705 199.781 5.74134C199.681 5.41577 199.581 5.08033 199.481 4.7153C199.281 5.4651 199.081 6.09651 198.871 6.5898L195.701 14.6798H203.241L203.251 14.6896ZM208.941 22.089H206.831C206.591 22.089 206.391 22.0298 206.241 21.9114C206.091 21.793 205.981 21.6351 205.901 21.4576L204.011 16.643H194.951L193.061 21.4576C193.001 21.6253 192.901 21.7733 192.741 21.9015C192.581 22.0298 192.381 22.0988 192.151 22.0988H190.041L198.121 2.16992H200.881L208.961 22.0988L208.941 22.089Z" fill="#636A69"></path><path d="M229.382 2.16016V22.0891H228.012C227.792 22.0891 227.612 22.0496 227.472 21.9805C227.332 21.9115 227.182 21.7832 227.042 21.6056L215.362 6.5899C215.382 6.81681 215.392 7.04373 215.402 7.27064C215.402 7.49755 215.412 7.70473 215.412 7.89218V22.0891H213.012V2.16016H214.422C214.542 2.16016 214.652 2.16016 214.732 2.17989C214.822 2.18975 214.892 2.21935 214.962 2.24895C215.032 2.27855 215.092 2.32788 215.162 2.38707C215.232 2.44626 215.302 2.52519 215.372 2.61398L227.052 17.6199C227.032 17.3831 227.022 17.1463 227.002 16.9194C226.992 16.6925 226.982 16.4754 226.982 16.2682V2.16016H229.382Z" fill="#636A69"></path><path d="M250.641 12.1345C250.641 10.9111 250.471 9.81602 250.131 8.84917C249.791 7.88232 249.311 7.07332 248.691 6.40245C248.071 5.73158 247.321 5.22842 246.431 4.87325C245.541 4.51808 244.561 4.3405 243.471 4.3405H238.661V19.8989H243.471C244.561 19.8989 245.551 19.7213 246.431 19.3661C247.311 19.0109 248.061 18.5078 248.691 17.8468C249.311 17.1858 249.791 16.3669 250.131 15.4099C250.471 14.4431 250.641 13.348 250.641 12.1246M253.451 12.1246C253.451 13.6143 253.211 14.9758 252.731 16.1992C252.251 17.4225 251.571 18.4683 250.701 19.3365C249.831 20.2047 248.781 20.8854 247.551 21.359C246.321 21.8326 244.971 22.0792 243.481 22.0792H235.941V2.16016H243.481C244.961 2.16016 246.321 2.39694 247.551 2.88036C248.781 3.35392 249.831 4.03466 250.701 4.91271C251.571 5.79077 252.251 6.83654 252.731 8.0599C253.211 9.28326 253.451 10.6447 253.451 12.1345" fill="#636A69"></path><path d="M268.972 14.6896L265.802 6.57993C265.712 6.34315 265.612 6.05705 265.502 5.74134C265.402 5.41577 265.302 5.08033 265.202 4.7153C265.002 5.4651 264.802 6.09651 264.592 6.5898L261.422 14.6798H268.962L268.972 14.6896ZM274.662 22.089H272.552C272.312 22.089 272.112 22.0298 271.962 21.9114C271.812 21.793 271.702 21.6351 271.622 21.4576L269.732 16.643H260.672L258.782 21.4576C258.722 21.6253 258.622 21.7733 258.462 21.9015C258.302 22.0298 258.102 22.0988 257.872 22.0988H255.762L263.842 2.16992H266.602L274.682 22.0988L274.662 22.089Z" fill="#636A69"></path><path d="M3.92 19.4062H0V24.2405H3.92V19.4062Z" fill="#636A69"></path></svg>