<svg version="1.2" xmlns="http://www.w3.org/2000/svg" viewBox="0 0 800 800" width="800" height="800">
	<title>deep-learning-svgrepo-com</title>
	<style>
		.s0 { fill: #ffffff } 
		.s1 { fill: none } 
	</style>
	<g id="SVGRepo_bgCarrier">
	</g>
	<g id="SVGRepo_tracerCarrier">
	</g>
	<g id="SVGRepo_iconCarrier">
		<path class="s0" d="m683.3 300c-13.9 0-27.6 2.5-40.6 7.4-13 4.9-25 12-35.5 21.1-10.5 9.2-19.3 20.1-25.9 32.3-6.6 12.2-11 25.5-13 39.2h-36.6c-3.2-15.5-10.7-29.9-21.7-41.3-10.9-11.4-25-19.4-40.4-23.1-15.4-3.7-31.5-2.9-46.5 2.3-15 5.2-28.2 14.6-38 27l-89.2-40.5 104.8-140.9c7.1 5.4 15.1 9.6 23.5 12.3 8.5 2.8 17.4 4.2 26.3 4.2 8.9-0.1 17.7-1.6 26.2-4.5 8.4-2.9 16.3-7.2 23.3-12.6l78 83.8h-44.7v33.3h100v-100h-33.3v41.4l-77.9-83.7q2.7-4.7 4.8-9.6 2.1-5 3.5-10.2 1.4-5.2 2.2-10.5 0.7-5.3 0.7-10.7c0-22.1-8.7-43.3-24.4-59-15.6-15.6-36.8-24.4-58.9-24.4-22.1 0-43.3 8.8-58.9 24.4-15.7 15.7-24.4 36.9-24.4 59q0 5.4 0.7 10.8 0.8 5.4 2.2 10.6 1.5 5.3 3.6 10.3 2.1 5 4.9 9.7l-113.2 152.2-99.7-45.4q1.2-6 1.4-12.2 0.3-6.1-0.4-12.2-0.7-6.1-2.3-12-1.6-5.9-4.1-11.5l123.5-46.2-14.7 45.7 31.4 11.1 33.3-94.3-94.2-33.3-11.2 31.4 33.7 11.9-122 45.6c-22.4-20.8-54.5-27.5-83.5-17.6-29 9.9-50.1 35-55.1 65.2-5.1 30.2 6.9 60.7 31.1 79.4 24.3 18.8 56.8 22.7 84.8 10.3l69.5 89.6-68.4 92c-28.8-13.4-62.7-9.3-87.5 10.7-24.7 19.9-35.9 52.2-29 83.1 7 31 31 55.4 61.9 62.8 30.9 7.4 63.3-3.4 83.6-27.8l116.1 52.9-35.2 12.4 11.2 31.4 94.2-33.3-33.3-94.3-31.4 11.1 14.5 45.2-120.3-54.9q0.9-2.9 1.6-5.8 0.7-2.9 1.2-5.9 0.5-3 0.8-6 0.2-3 0.3-6.1 0-2.2-0.2-4.4-0.1-2.2-0.3-4.4-0.3-2.2-0.6-4.4-0.4-2.2-0.9-4.3l101.8-46.9 115.9 149.4c-18.1 25.1-20.6 58.2-6.8 85.8 13.9 27.7 42 45.3 72.9 45.9 31 0.6 59.7-16.1 74.6-43.2 14.8-27.1 13.5-60.2-3.6-86l80.5-80.6v43.1h33.3v-100h-100v33.4h43.1l-80.5 80.5c-6.5-4.4-13.6-7.8-21.1-10.1-7.5-2.3-15.3-3.6-23.1-3.7-7.9-0.2-15.7 0.8-23.2 2.9-7.6 2.1-14.8 5.2-21.5 9.3l-109.4-141 85.1-39.2c9.4 13.2 22.5 23.3 37.6 29.1 15.1 5.8 31.6 7.1 47.4 3.6 15.8-3.4 30.3-11.3 41.6-22.8 11.4-11.5 19.2-26.1 22.4-42h36.6c6.6 45.1 39 82.2 82.7 94.9 43.8 12.8 90.9-1.2 120.7-35.7 29.8-34.5 36.7-83.2 17.6-124.6-19-41.5-60.4-68-106-67.9zm-233.3-233.3c20.2 0 38.5 12.1 46.2 30.8 7.7 18.7 3.5 40.2-10.8 54.5-14.3 14.3-35.9 18.6-54.5 10.9-18.7-7.8-30.9-26-30.9-46.2 0-6.6 1.3-13.1 3.8-19.2 2.5-6 6.2-11.5 10.9-16.2 4.6-4.6 10.1-8.3 16.2-10.8 6-2.5 12.5-3.8 19.1-3.8zm0 600c20.2 0 38.5 12.1 46.2 30.8 7.7 18.7 3.5 40.2-10.8 54.5-14.3 14.3-35.9 18.6-54.5 10.9-18.7-7.8-30.9-26-30.9-46.2 0-6.6 1.3-13.1 3.8-19.2 2.5-6 6.2-11.5 10.9-16.2 4.6-4.6 10.1-8.3 16.2-10.8 6-2.5 12.5-3.8 19.1-3.8zm-416.7-416.7c-0.1-17.1 8.6-33.1 23-42.4 14.4-9.3 32.6-10.5 48.2-3.3 15.5 7.3 26.2 22 28.4 39 2.2 17-4.5 33.9-17.7 44.9l-4.8 3.7c-7.5 4.9-16.2 7.7-25.2 8.1-9 0.3-17.9-1.8-25.8-6.1-7.9-4.3-14.5-10.6-19.1-18.3-4.6-7.8-7-16.6-7-25.6zm110.7 56.8q1.2-1.3 2.4-2.6 1.1-1.3 2.2-2.7 1.1-1.3 2.2-2.7 1-1.5 2-2.9l91.7 41.7-37.4 50.4zm-60.7 326.6c-20.2 0-38.5-12.2-46.2-30.9-7.7-18.7-3.5-40.2 10.8-54.5 14.3-14.3 35.9-18.6 54.5-10.8 18.7 7.7 30.9 25.9 30.9 46.2 0 6.5-1.3 13-3.8 19.1-2.5 6.1-6.2 11.6-10.9 16.2-4.6 4.6-10.1 8.3-16.2 10.8-6 2.6-12.5 3.9-19.1 3.9zm67.9-98.1q-0.7-1-1.5-2-0.8-1-1.6-2-0.8-0.9-1.6-1.9-0.9-0.9-1.7-1.9l62.8-84.4 37.9 48.8zm125.3-57.7l-48.3-62.2 47.4-63.6 94.3 42.9q-1.5 4.9-2.3 10-0.8 5-0.9 10.1-0.2 5.2 0.4 10.3 0.5 5.1 1.7 10zm173.5-10.9c-20.3 0-38.5-12.2-46.2-30.9-7.8-18.6-3.5-40.2 10.8-54.5 14.3-14.3 35.8-18.5 54.5-10.8 18.7 7.7 30.9 26 30.9 46.2 0 6.6-1.3 13.1-3.9 19.1-2.5 6.1-6.2 11.6-10.8 16.2-4.6 4.7-10.1 8.4-16.2 10.9-6.1 2.5-12.6 3.8-19.1 3.8zm233.3 33.3c-33.7 0-64.1-20.3-77-51.4-12.9-31.1-5.8-67 18.1-90.8 23.8-23.9 59.7-31 90.8-18.1 31.1 12.9 51.4 43.3 51.4 77 0 10.9-2.1 21.8-6.3 31.9-4.2 10.1-10.4 19.3-18.1 27-7.7 7.7-16.9 13.9-27 18.1-10.1 4.2-21 6.3-31.9 6.3zm50-83.3c0 20.2-12.2 38.5-30.9 46.2-18.6 7.7-40.2 3.5-54.5-10.8-14.3-14.3-18.5-35.9-10.8-54.5 7.7-18.7 26-30.9 46.2-30.9 6.6 0 13.1 1.3 19.1 3.8 6.1 2.5 11.6 6.2 16.2 10.9 4.7 4.6 8.4 10.1 10.9 16.2 2.5 6 3.8 12.5 3.8 19.1z"/>
		<path class="s1" d="m0 0h800v800h-800z"/>
	</g>
</svg>