<svg version="1.2" xmlns="http://www.w3.org/2000/svg" viewBox="0 0 800 803" width="800" height="803">
	<title>computer-vision</title>
	<style>
		.s0 { fill: #ffffff } 
	</style>
	<path class="s0" d="m678.97 661.25v-368.41h-554.69v368.41h244.43v63.77h-83.84v48.41h233.21v-48.41h-83.54v-63.77zm-517.2-330.92h477.64v291.37h-477.64zm474.1-196.02c-2.95-3.24-5.61-6.2-8.86-8.85-10.92-10.34-22.73-19.49-35.13-28.05-32.17-23.32-67.6-42.51-105.68-55.2-24.8-8.27-51.07-12.99-77.64-14.17h-15.64c-41.33 1.18-81.18 12.99-118.38 30.7-34.24 16.83-66.42 38.38-95.35 63.76-3.54 3.55-7.68 7.09-11.51 10.93-1.77 2.06-3.55 4.43-4.14 7.38v5.02c0.3 3.54 2.96 6.19 5.32 8.56 5.61 5.61 11.51 10.62 17.12 15.64 15.06 12.7 30.7 24.21 47.23 34.25 1.18 0.88 2.95 1.77 4.14 2.36 28.63 17.41 59.04 31.88 91.51 40.74 20.96 5.6 42.51 9.44 64.06 10.33h15.05c40.45-1.18 80-12.7 116.31-29.82 37.2-17.41 71.44-40.44 101.55-67.6 3.54-3.25 7.09-6.2 9.74-10.33 0.89-1.18 1.78-2.95 2.07-5.02v-5.02c0.3-1.77-0.29-3.84-1.77-5.61zm-424.21 21.26c-5.31-4.14-10.62-8.56-15.94-12.99h94.76q0 10.18 1.77 20.37c3.55 19.48 12.7 38.37 25.69 53.13-38.68-13.87-74.1-35.13-106.28-60.51zm342.44 26.27c-22.14 13.87-45.17 25.68-70.26 34.24 13.87-15.94 23.32-35.13 26.57-55.79 0.88-5.9 1.47-11.81 1.47-18.01h95.06c-16.53 15.06-34.54 28.05-52.84 39.56z"/>
</svg>