<svg version="1.2" xmlns="http://www.w3.org/2000/svg" viewBox="0 0 800 800" width="800" height="800">
	<title>image-segmentation</title>
	<style>
		.s0 { fill: #ffffff } 
		.s1 { fill: none } 
	</style>
	<path class="s0" d="m625 533.33l150 266.67h-708.33l150-266.67zm108.33 100h33.33v-33.33h-33.33zm0-66.67h33.33v-33.33h-33.33zm0-66.67h33.33v-33.33h-33.33zm0-66.67h33.33v-33.33h-33.33zm33.33-100h-33.33v33.33h33.33zm-700 366.67h33.34v-33.33h-33.34zm0-66.67h33.34v-33.33h-33.34zm0-66.67h33.34v-33.33h-33.34zm0-66.67h33.34v-33.33h-33.34zm0-66.67h33.34v-33.33h-33.34zm33.34-100h-33.34v33.33h33.34zm500 166.67h33.33v-33.34h-33.33zm0-66.66h33.33v-33.34h-33.33zm33.33-100h-33.33v33.34h33.33zm-433.33 166.66h33.33v-33.33h-33.33zm0-66.67h33.33v-33.33h-33.33zm33.33-100h-33.33v33.33h33.33zm500 333.34h33.33v33.33h-33.33zm-497.17-100l-18.73 33.33h135.83l139.57 66.67h168.93l-56.26-100zm481.83 200l-37.5-66.67h-195.23l-139.57-66.66h-145.7v-2.37l-76.33 135.7zm-93-733.33l150 266.66h-708.34l150-266.66zm-191.66 33.33v71.6l59.5 28.4h168.93l-56.27-100zm-197.16 0l-18.77 33.33h135.83l46.77 22.34v-55.67zm163.83 200v-107.4l-54.33-25.93h-145.67v-2.37l-76.33 135.7zm318 0l-37.5-66.67h-195.23l-51.94-24.8v91.47z"/>
	<path class="s1" d="m0 0h800v800h-800z"/>
</svg>