<svg version="1.2" xmlns="http://www.w3.org/2000/svg" viewBox="0 0 914 910" width="914" height="910">
	<title>virtual-reality</title>
	<style>
		.s0 { fill: #ffffff } 
	</style>
	<path class="s0" d="m754.22 749.22l-27.78-21.28c17.04-22.25 31.92-46.24 44.25-71.31l31.41 15.43c-13.34 27.14-29.44 53.1-47.88 77.16zm94.94-280.43q0-5.12-0.11-10.21l-34.99 0.76q0.1 4.72 0.1 9.45c0 52.26-9.34 103.28-27.74 151.66l32.71 12.45c19.92-52.37 30.03-107.59 30.03-164.11zm-2.99-52.78c-6.76-59.42-24.75-116.14-53.45-168.58l-30.7 16.8c26.52 48.45 43.12 100.85 49.38 155.75zm-75.66-205.05c-33.42-49.55-75.48-91.63-125-125.07l-19.59 29.01c45.79 30.91 84.68 69.82 115.57 115.63zm-161.45-147.3c-52.41-28.73-109.12-46.74-168.54-53.54l-3.98 34.77c54.89 6.28 107.28 22.93 155.7 49.47zm-221.59-21.57q4.86 0 9.7 0.11l0.78-34.99q-5.22-0.11-10.47-0.12c-56.44 0-111.57 10.07-163.86 29.93l12.42 32.72c48.31-18.34 99.26-27.65 151.43-27.65zm-187.84 43.48l-15.44-31.42c-27.12 13.33-53.08 29.44-77.16 47.88l21.29 27.78c22.25-17.04 46.24-31.93 71.31-44.24zm494.6 379.47c0 0 0.56-10.89-1.1-28.87v-0.15c-9.21-71.91-42.62-136.33-91.82-184.82l-96.97 106.08-439.72 162.94 28.24 76.19 438.57-162.51zm-176.94-163.42c-61.02-62.76-171.03-88.63-262.59-54.69-100.93 37.42-161.76 133.4-162.78 233.32l396.33-146.86zm-391.39 312.41c30.61 51.43 79.26 89.43 138.07 108.33v180.73h301.22l-0.24-146 34.32-14.03c49.28-18.24 77.35-73.47 57.89-126.05l-24.37-65.66 29.05-10.75c16.88-6.25 21.27-28.1 8.11-40.38l-14.17-13.23-122.02-24.1z"/>
</svg>