<svg version="1.2" xmlns="http://www.w3.org/2000/svg" viewBox="0 0 32 32" width="32" height="32">
	<title>devops-svgrepo-com</title>
	<style>
		.s0 { fill: #ffffff } 
		.s1 { fill: none } 
	</style>
	<path id="devops_1_" class="s0" d="m18 31.36h-4q-0.2-0.01-0.31-0.18l-2-3.46q-0.1-0.18 0-0.36l2-3.47q0.11-0.17 0.31-0.18h3.79l2.9-5.01c0.1-0.18 0.32-0.24 0.49-0.14 0.17 0.1 0.23 0.32 0.13 0.49l-2.89 5.02 1.89 3.28q0.1 0.18 0 0.36l-2 3.47q-0.11 0.17-0.31 0.18zm-3.79-0.72h3.58l1.79-3.1-1.79-3.11h-3.58l-1.79 3.11zm13.79-5.05h-4q-0.21-0.01-0.31-0.18l-2-3.47q-0.1-0.18 0-0.36l1.89-3.28-2.89-5.02c-0.1-0.17-0.04-0.39 0.13-0.49 0.17-0.1 0.39-0.04 0.49 0.13l2.9 5.02h3.79q0.2 0.01 0.31 0.18l2 3.46q0.1 0.18 0 0.36l-2 3.47q-0.11 0.17-0.31 0.18zm-3.79-0.72h3.58l1.79-3.11-1.79-3.1h-3.58l-1.8 3.1zm-16.2 0.73h-4q-0.21-0.01-0.32-0.19l-2-3.46q-0.09-0.18 0-0.36l2-3.46q0.11-0.18 0.32-0.18h4q0.2 0 0.31 0.18l1.89 3.28h5.8c0.2 0 0.36 0.16 0.36 0.36 0 0.2-0.17 0.36-0.36 0.36h-5.8l-1.89 3.28q-0.11 0.18-0.31 0.19zm-3.8-0.73h3.59l1.79-3.1-1.79-3.1h-3.59l-1.79 3.1zm6.79-5.62q-0.2 0-0.31-0.18l-2.89-5.02h-3.8q-0.2 0-0.31-0.18l-2-3.46q-0.09-0.18 0-0.36l2-3.46q0.11-0.18 0.31-0.18h4q0.21 0 0.32 0.18l2 3.46q0.09 0.18 0 0.36l-1.9 3.28 2.9 5.02c0.1 0.17 0.04 0.39-0.14 0.49q-0.08 0.05-0.18 0.05zm-6.79-5.92h3.59l1.79-3.1-1.79-3.1h-3.59l-1.79 3.1zm23.79 0.72h-4q-0.2-0.01-0.31-0.18l-1.9-3.28h-5.79c-0.2 0-0.36-0.17-0.36-0.36 0-0.2 0.16-0.36 0.36-0.36h5.79l1.9-3.29q0.11-0.17 0.31-0.18h4q0.21 0.01 0.31 0.18l2 3.47q0.1 0.18 0 0.36l-2 3.46q-0.1 0.17-0.31 0.18zm-3.79-0.72h3.58l1.8-3.1-1.8-3.11h-3.58l-1.79 3.11zm-13.21 0.14q-0.09 0-0.18-0.04c-0.17-0.1-0.23-0.32-0.13-0.5l2.89-5.01-1.89-3.29q-0.1-0.18 0-0.36l2-3.46q0.11-0.17 0.31-0.18h4q0.2 0.01 0.31 0.18l2 3.46q0.1 0.18 0 0.36l-2 3.47q-0.11 0.17-0.31 0.18h-3.79l-2.9 5.02q-0.11 0.17-0.31 0.17zm3.21-5.91h3.58l1.79-3.11-1.79-3.1h-3.58l-1.79 3.1z"/>
	<path id="_Transparent_Rectangle" fill-rule="evenodd" class="s1" d="m0 0h32v32h-32z"/>
</svg>