<svg version="1.2" xmlns="http://www.w3.org/2000/svg" viewBox="0 0 800 800" width="800" height="800">
	<title>integration-svgrepo-com (2)</title>
	<style>
		.s0 { fill: #ffffff } 
		.s1 { fill: none } 
	</style>
	<path class="s0" d="m747 388l-150-275q-1.62-2.96-3.96-5.38-2.35-2.43-5.25-4.14-2.91-1.72-6.16-2.6-3.26-0.89-6.63-0.88h-350q-3.37-0.01-6.63 0.88-3.25 0.88-6.16 2.6-2.9 1.71-5.25 4.14-2.34 2.42-3.96 5.38l-150 275q-1.64 2.85-2.5 6.03-0.85 3.18-0.85 6.47 0 3.29 0.85 6.47 0.86 3.18 2.5 6.03l150 275q1.72 2.82 4.1 5.1 2.39 2.27 5.29 3.86 2.9 1.57 6.1 2.35 3.21 0.77 6.51 0.69h350q3.37 0.01 6.63-0.88 3.25-0.88 6.16-2.6 2.9-1.71 5.25-4.14 2.34-2.42 3.96-5.38l150-275q1.51-2.76 2.29-5.81 0.78-3.04 0.78-6.19 0-3.15-0.78-6.19-0.78-3.05-2.29-5.81zm-173.75-213l109.75 200h-237.5zm-173.25 178.5l-129.5-203.5h259zm-173.25-178.5l127.75 200h-237.5zm-109.75 250h237.5l-127.75 200zm283 21.5l129.5 203.5h-259zm173.25 178.5l-127.75-200h237.5z"/>
	<path id="_Transparent_Rectangle_" fill-rule="evenodd" class="s1" d="m0 0h800v800h-800z"/>
</svg>