<svg version="1.2" xmlns="http://www.w3.org/2000/svg" viewBox="0 0 800 800" width="800" height="800">
	<title>shopify</title>
	<style>
		.s0 { fill: #ffffff } 
	</style>
	<g id="SVGRepo_bgCarrier">
	</g>
	<g id="SVGRepo_tracerCarrier">
	</g>
	<g id="SVGRepo_iconCarrier">
		<path class="s0" d="m522.98 113.65c-0.63 0-1.88 0.65-2.43 0.65-0.55 0-9.03 2.35-22.3 6.55-13.23-38.53-36.75-74.05-78.35-74.05h-3.6c-8.9-12.5-23.02-20.8-39.1-21.7h-0.13c-97.02 0-143.39 121.12-157.92 182.62-37.3 11.4-64.45 19.88-67.48 21.05-21.1 6.65-21.67 7.25-24.12 27.18-2.35 14.42-57.18 439.35-57.18 439.35l423.66 79.57zm-93.48-40.27c21.68 2.3 35.65 27.07 44.65 54.82-10.9 3.55-22.97 7.23-36.17 11.43v-7.88c0.02-1.22 0.05-2.67 0.05-4.12 0-19.43-3.13-38.1-8.88-55.6 0 0 0.35 1.25 0.35 1.35zm-16.85 69.8v4.22c-23.55 7.25-49.45 15.13-74.8 23 6.6-40.17 30.93-73.6 64.5-92.47l0.65-0.33c6.2 17.63 9.78 37.95 9.78 59.13q-0.01 3.41-0.13 6.82c0 0 0-0.32 0-0.37zm-38.57-92.13h0.02c4.75 0 9.15 1.58 12.68 4.25l-0.05-0.05c-43.73 26.2-73.68 71.53-78.31 124.1l-0.05 0.6c-20.5 6.65-40.39 12.65-59.02 18.05 16.2-55.77 55.4-146.67 124.7-146.67zm16.87 327.25c-16.2-8-35.2-12.85-55.27-13.25h-0.13c-45.2 0-46.97 28.3-46.97 35.65 0 38.5 101.22 53.57 101.22 144.62 0.35 3.2 0.53 6.93 0.53 10.68 0 58.97-47.8 106.77-106.78 106.77q-0.08 0-0.17 0c-1.25 0.05-2.7 0.05-4.15 0.05-41.9 0-79.68-17.57-106.38-45.75l-0.07-0.07 20.17-65.18c19.35 17 43.63 28.85 70.43 33.2l0.82 0.1q0.45 0.02 0.98 0.03c16.15 0 29.27-13 29.5-29.12v-0.03c0-50.58-82.93-52.93-82.93-136.18 0-0.49 0-1.09 0-1.7 0-75.65 61.33-136.94 136.95-136.94q7.32 0 14.45 0.74l-0.6-0.05c1.93-0.1 4.18-0.17 6.45-0.17 18.9 0 36.85 4.22 52.9 11.77l-0.75-0.32-29.52 84.82zm113.3 395.95l225.42-48.77c0 0-81.35-550.25-82-553.9-0.45-3.32-3.2-5.88-6.57-6-3.03 0-60.28-4.25-60.28-4.25 0 0-39.82-39.8-44.95-44.08-1.07-0.97-2.32-1.75-3.7-2.27l-0.07-0.03-28.55 659.31z"/>
	</g>
</svg>