<svg version="1.2" xmlns="http://www.w3.org/2000/svg" viewBox="0 0 800 803" width="800" height="803">
	<title>woocommerce</title>
	<style>
		.s0 { fill: #ffffff } 
	</style>
	<g id="SVGRepo_bgCarrier">
	</g>
	<g id="SVGRepo_tracerCarrier">
	</g>
	<g id="SVGRepo_iconCarrier">
		<g>
			<path fill-rule="evenodd" class="s0" d="m800 237.07v248.57c0 41.21-33.36 74.57-74.57 74.57h-233.52l32.05 78.49-140.97-78.49h-308.42c-41.21 0-74.57-33.36-74.57-74.57v-248.57c-0.32-40.88 33.04-74.57 74.25-74.57h651.18c41.21 0 74.57 33.36 74.57 74.57zm-739.49-17.01c-9.16 0.66-16.02 3.93-20.6 10.14-4.58 5.89-6.22 13.41-5.24 21.92q28.95 183.97 53.97 248.24c6.54 15.69 14.06 23.22 22.89 22.56 13.74-0.98 30.09-19.95 49.39-56.9q15.21-31.4 47.1-94.2c17.66 61.81 41.86 108.26 72.28 139.33 8.5 8.83 17.33 12.75 25.84 12.1 7.52-0.65 13.41-4.58 17.33-11.77q4.91-9.33 3.93-21.59c-1.97-29.76 0.98-71.3 9.15-124.61 8.51-54.95 18.97-94.52 31.73-118.07 2.62-4.91 3.6-9.81 3.27-15.7-0.65-7.52-3.93-13.74-10.14-18.64-6.21-4.91-13.08-7.2-20.6-6.54-9.49 0.65-16.69 5.23-21.59 14.39-20.28 36.96-34.67 96.81-43.17 179.88-12.43-31.4-22.9-68.35-31.07-111.85-3.6-19.3-12.43-28.46-26.82-27.48q-14.72 0.98-24.53 19.63l-71.63 136.38c-11.77-47.42-22.89-105.31-33.03-173.67q-3.44-25.51-28.46-23.55zm612.59 21.59c-31.4 0-56.91 16.35-76.86 49.06q-25.51 41.7-25.51 92.23 0 37.78 15.7 64.76c11.77 20.61 29.11 33.03 52.33 37.94q9.32 1.96 17.66 1.96c31.73 0 57.24-16.35 76.86-49.06 17.01-28.13 25.51-58.87 25.51-92.56 0-25.51-5.23-46.77-15.7-64.43-11.77-20.6-29.11-33.03-52.33-37.94q-9.32-1.96-17.66-1.96zm-22.57 189.37c-7.85-1.64-14.39-8.5-19.29-21.26-3.93-10.14-5.89-20.28-5.89-29.76 0-8.18 0.65-16.36 2.29-23.88 2.94-13.41 8.5-26.49 17.33-38.92 10.8-16.02 22.24-22.57 34.02-20.28 7.85 1.64 14.39 8.51 19.29 21.26 3.93 10.14 5.89 20.28 5.89 29.77 0 8.5-0.98 16.68-2.29 24.2-4.58 21.58-12.75 37.61-24.85 48.4-9.49 8.51-18.32 12.1-26.5 10.47zm-112.51-149.47c-11.77-20.6-29.43-33.03-52.33-37.94q-9.32-1.96-17.66-1.96c-31.4 0-56.91 16.35-76.86 49.06q-25.51 41.7-25.51 92.23 0 37.78 15.7 64.76c11.78 20.61 29.11 33.03 52.33 37.94q9.32 1.96 17.66 1.96c31.73 0 57.24-16.35 76.86-49.06 17.01-28.13 25.51-58.87 25.51-92.56 0-25.51-5.23-46.77-15.7-64.43zm-41.21 90.6c-4.57 21.58-12.75 37.61-24.85 48.4-9.49 8.51-18.32 12.1-26.49 10.47-7.86-1.64-14.4-8.5-19.3-21.26-3.93-10.14-5.89-20.28-5.89-29.76 0-8.18 0.65-16.36 2.29-23.88 2.94-13.41 8.5-26.49 17.33-38.92 10.8-16.02 22.25-22.57 34.02-20.28 7.85 1.64 14.39 8.51 19.3 21.26 3.92 10.14 5.88 20.28 5.88 29.77 0 8.5-0.65 16.68-2.29 24.2z"/>
		</g>
	</g>
</svg>