<svg version="1.2" xmlns="http://www.w3.org/2000/svg" viewBox="0 0 32 32" width="32" height="32">
	<title>user-experience</title>
	<style>
		.s0 { fill: #ffffff } 
		.s1 { fill: none } 
	</style>
	<path id="user--experience-design_1_" class="s0" d="m16 30.36c-2.61 0-5.09-0.71-7.19-2.06l0.39-0.6c1.98 1.27 4.33 1.94 6.8 1.94 2.41 0 4.82-0.69 6.81-1.94l0.38 0.6c-2.1 1.33-4.65 2.06-7.19 2.06zm12-4c-1.85 0-3.36-1.51-3.36-3.36 0-1.85 1.51-3.36 3.36-3.36 1.85 0 3.36 1.51 3.36 3.36 0 1.85-1.51 3.36-3.36 3.36zm0-6c-1.46 0-2.64 1.18-2.64 2.64 0 1.46 1.18 2.64 2.64 2.64 1.46 0 2.64-1.18 2.64-2.64 0-1.46-1.18-2.64-2.64-2.64zm-20 6h-7q-0.2-0.01-0.31-0.18-0.1-0.18 0-0.36l3.5-6c0.13-0.22 0.49-0.22 0.62 0l3.5 6q0.1 0.18 0 0.36-0.11 0.17-0.31 0.18zm-6.37-0.72h5.74l-2.87-4.92zm19.73-2.65h-0.72v-1.68c0-2.16-1.46-4.01-3.56-4.51-0.15-0.04-0.26-0.16-0.28-0.32-0.01-0.15 0.07-0.3 0.22-0.36 0.89-0.4 1.47-1.29 1.47-2.27 0-1.38-1.11-2.49-2.49-2.49-1.37 0-2.49 1.11-2.49 2.49 0 0.98 0.58 1.87 1.48 2.27 0.15 0.06 0.23 0.21 0.22 0.36-0.02 0.16-0.13 0.28-0.28 0.32-2.1 0.5-3.56 2.35-3.56 4.51v1.68h-0.72v-1.68c0-2.22 1.34-4.16 3.34-4.97-0.74-0.6-1.19-1.51-1.19-2.5 0-1.77 1.44-3.21 3.21-3.21 1.77 0 3.21 1.44 3.21 3.22 0 0.98-0.46 1.89-1.2 2.49 2 0.81 3.35 2.75 3.35 4.97v1.68zm7.96-4.97l-0.72-0.05q0.04-0.48 0.04-0.98c0-4.7-2.61-8.99-6.81-11.18l0.33-0.64c4.44 2.32 7.2 6.85 7.2 11.82q0 0.52-0.04 1.03zm-26.64 0q-0.04-0.51-0.04-1.03c0-5 2.75-9.54 7.19-11.85l0.33 0.64c-4.2 2.19-6.8 6.48-6.8 11.21q0 0.5 0.03 0.98zm16.32-10.67h-6c-0.19 0-0.36-0.16-0.36-0.36v-6c0-0.2 0.17-0.36 0.36-0.36h6c0.2 0 0.36 0.16 0.36 0.36v6c0 0.2-0.16 0.36-0.36 0.36zm-5.64-0.72h5.28v-5.28h-5.28z"/>
	<path id="_Transparent_Rectangle" fill-rule="evenodd" class="s1" d="m0 0h32v32h-32z"/>
</svg>