<svg version="1.2" xmlns="http://www.w3.org/2000/svg" viewBox="0 0 800 800" width="800" height="800">
	<title>ui-ux</title>
	<style>
		.s0 { fill: #ffffff } 
	</style>
	<path class="s0" d="m120 240h-80c-24 0-40-16-40-40 0-24 16-40 40-40h80z"/>
	<path class="s0" d="m760 240h-320v-80h320c24 0 40 16 40 40 0 24-16 40-40 40z"/>
	<path class="s0" d="m320 40h-80c-24 0-40 16-40 40v240c0 24 16 40 40 40h80c24 0 40-16 40-40v-240c0-24-16-40-40-40z"/>
	<path class="s0" d="m560 440h-80c-24 0-40 16-40 40v240c0 24 16 40 40 40h80c24 0 40-16 40-40v-240c0-24-16-40-40-40z"/>
	<path class="s0" d="m760 640h-80v-80h80c24 0 40 16 40 40 0 24-16 40-40 40z"/>
	<path class="s0" d="m360 640h-320c-24 0-40-16-40-40 0-24 16-40 40-40h320z"/>
</svg>