<svg version="1.2" xmlns="http://www.w3.org/2000/svg" viewBox="0 0 800 800" width="800" height="800">
	<title>automation-svgrepo-com</title>
	<style>
		.s0 { fill: #ffffff } 
		.s1 { fill: none } 
	</style>
	<path class="s0" d="m700 443.1v-343.1h-266.67v-66.67h-166.66v66.67h-166.67v133.33h33.33v-100h133.34v66.67h166.66v-66.67h233.34v309.77l-76.44-76.43-23.56 23.56 116.66 116.67 116.67-116.67-23.57-23.56zm-300-276.44h-100v-100h100zm266.67 500h-100v-66.66h-166.67v66.66h-266.66v-309.76l76.43 76.43 23.57-23.57-116.67-116.66-116.67 116.66 23.57 23.57 76.43-76.43v343.1h300v66.66h166.67v-66.66h133.33v-133.34h-33.33zm-133.33 66.67h-100v-100h100z"/>
	<path class="s1" d="m0 0h800v800h-800z"/>
</svg>