<svg version="1.2" xmlns="http://www.w3.org/2000/svg" viewBox="0 0 800 800" width="800" height="800">
	<title>chat-dot-round-svgrepo-com</title>
	<style>
		.s0 { fill: #ffffff } 
	</style>
	<path class="s0" d="m101.15 733c-4.52 1.52-9.39 1.71-14.02 0.55-4.63-1.16-8.83-3.62-12.1-7.09-3.28-3.47-5.49-7.81-6.38-12.5-0.89-4.69-0.42-9.53 1.35-13.96l45.6-114c-41.6-54.5-65.6-119.7-65.6-186 0-165.7 150-325 350-325 200 0 350 159.3 350 325 0 165.7-150 325-350 325-13.96 0.04-27.92-0.73-41.79-2.31-13.88-1.58-27.65-3.97-41.24-7.15-13.6-3.18-27-7.15-40.14-11.88-13.13-4.74-25.98-10.23-38.48-16.46l-137.2 45.75zm35.35-64.5l105.7-35.25 18.5 9.25c42.5 21.2 89.75 32.5 139.3 32.5 165.5 0 300-130.3 300-275 0-144.7-134.5-275-300-275-165.5 0-300 130.3-300 275 0 54 19.5 108.8 55.35 155.65l17.25 22.5-36.15 90.3z"/>
	<path class="s0" d="m400 440c-10.61 0-20.78-4.21-28.28-11.72-7.51-7.5-11.72-17.67-11.72-28.28 0-10.61 4.21-20.78 11.72-28.28 7.5-7.51 17.67-11.72 28.28-11.72 10.61 0 20.78 4.21 28.28 11.72 7.51 7.5 11.72 17.67 11.72 28.28 0 10.61-4.21 20.78-11.72 28.28-7.5 7.51-17.67 11.72-28.28 11.72zm150 0c-10.61 0-20.78-4.21-28.28-11.72-7.51-7.5-11.72-17.67-11.72-28.28 0-10.61 4.21-20.78 11.72-28.28 7.5-7.51 17.67-11.72 28.28-11.72 10.61 0 20.78 4.21 28.28 11.72 7.51 7.5 11.72 17.67 11.72 28.28 0 10.61-4.21 20.78-11.72 28.28-7.5 7.51-17.67 11.72-28.28 11.72zm-300 0c-10.61 0-20.78-4.21-28.28-11.72-7.51-7.5-11.72-17.67-11.72-28.28 0-10.61 4.21-20.78 11.72-28.28 7.5-7.51 17.67-11.72 28.28-11.72 10.61 0 20.78 4.21 28.28 11.72 7.51 7.5 11.72 17.67 11.72 28.28 0 10.61-4.21 20.78-11.72 28.28-7.5 7.51-17.67 11.72-28.28 11.72z"/>
</svg>