<svg version="1.2" xmlns="http://www.w3.org/2000/svg" viewBox="0 0 800 800" width="800" height="800">
	<title>machine-learning-svgrepo-com</title>
	<style>
		.s0 { fill: #ffffff } 
		.s1 { fill: none } 
	</style>
	<path class="s0" d="m400 625c-14.38 0.01-28.71-1.75-42.66-5.25-13.96-3.5-27.42-8.71-40.1-15.51-12.67-6.79-24.46-15.13-35.09-24.82-10.63-9.69-20.03-20.65-27.97-32.64l41.64-27.68c11.41 17.19 26.89 31.29 45.07 41.04 18.17 9.76 38.48 14.86 59.11 14.86 20.63 0 40.94-5.1 59.11-14.86 18.18-9.75 33.66-23.85 45.07-41.04l41.65 27.68c-7.95 11.99-17.35 22.95-27.98 32.64-10.63 9.69-22.42 18.03-35.09 24.82-12.68 6.8-26.14 12.01-40.1 15.51-13.95 3.5-28.28 5.26-42.66 5.25z"/>
	<path class="s0" d="m500 350c-20.22 0-38.45 12.18-46.19 30.87-7.74 18.68-3.47 40.19 10.83 54.49 14.3 14.3 35.81 18.57 54.49 10.83 18.69-7.74 30.87-25.97 30.87-46.19 0.06-6.58-1.18-13.12-3.67-19.21-2.49-6.1-6.17-11.63-10.83-16.29-4.66-4.66-10.19-8.34-16.29-10.83-6.09-2.49-12.63-3.73-19.21-3.67z"/>
	<path class="s0" d="m300 350c-20.22 0-38.45 12.18-46.19 30.87-7.74 18.68-3.47 40.19 10.83 54.49 14.3 14.3 35.81 18.57 54.49 10.83 18.69-7.74 30.87-25.97 30.87-46.19 0.06-6.58-1.18-13.12-3.67-19.21-2.49-6.1-6.17-11.63-10.83-16.29-4.66-4.66-10.19-8.34-16.29-10.83-6.09-2.49-12.63-3.73-19.21-3.67z"/>
	<path class="s0" d="m750 400v-50h-50v-100c-0.01-13.13-2.61-26.12-7.64-38.25-5.03-12.13-12.4-23.14-21.68-32.43-9.29-9.28-20.3-16.65-32.43-21.68-12.13-5.03-25.12-7.63-38.25-7.64h-50v-100h-50v100h-200v-100h-50v100h-50c-13.13 0.01-26.12 2.61-38.25 7.64-12.13 5.03-23.14 12.4-32.43 21.68-9.28 9.29-16.65 20.3-21.68 32.43-5.03 12.13-7.63 25.12-7.64 38.25v100h-50v50h50v125h-50v50h50v75c0.01 13.13 2.61 26.12 7.64 38.25 5.03 12.13 12.4 23.14 21.68 32.43 9.29 9.28 20.3 16.65 32.43 21.68 12.13 5.03 25.12 7.63 38.25 7.64h400c13.13-0.01 26.12-2.61 38.25-7.64 12.13-5.03 23.14-12.4 32.43-21.68 9.28-9.29 16.65-20.3 21.68-32.43 5.03-12.13 7.63-25.12 7.64-38.25v-75h50v-50h-50v-125zm-100 250c-0.01 6.56-1.31 13.06-3.82 19.13-2.52 6.06-6.2 11.57-10.84 16.21-4.64 4.64-10.15 8.32-16.21 10.84-6.07 2.51-12.57 3.81-19.13 3.82h-400c-6.56-0.01-13.06-1.31-19.13-3.82-6.06-2.52-11.57-6.2-16.21-10.84-4.64-4.64-8.32-10.15-10.84-16.21-2.51-6.07-3.81-12.57-3.82-19.13v-400c0.01-6.56 1.31-13.06 3.82-19.13 2.52-6.06 6.2-11.57 10.84-16.21 4.64-4.64 10.15-8.32 16.21-10.84 6.07-2.51 12.57-3.81 19.13-3.82h400c6.56 0.01 13.06 1.31 19.13 3.82 6.06 2.52 11.57 6.2 16.21 10.84 4.64 4.64 8.32 10.15 10.84 16.21 2.51 6.07 3.81 12.57 3.82 19.13z"/>
	<path id="_Transparent_Rectangle_" fill-rule="evenodd" class="s1" d="m0 0h800v800h-800z"/>
</svg>