<svg version="1.2" xmlns="http://www.w3.org/2000/svg" viewBox="0 0 32 32" width="32" height="32">
	<title>natural-language-classifier-svgrepo-com</title>
	<style>
		.s0 { fill: #ffffff } 
		.s1 { fill: none } 
	</style>
	<path id="natural--language--classifier_1_" class="s0" d="m19 31.36h-6c-0.2 0-0.36-0.16-0.36-0.36v-6c0-0.2 0.16-0.36 0.36-0.36h2.64v-6.28h-3.64c-0.2 0-0.36-0.16-0.36-0.36v-4c0-0.2 0.16-0.36 0.36-0.36h8c0.2 0 0.36 0.16 0.36 0.36v4c0 0.2-0.16 0.36-0.36 0.36h-3.64v6.28h2.64c0.2 0 0.36 0.16 0.36 0.36v6c0 0.2-0.16 0.36-0.36 0.36zm-5.64-0.72h5.28v-5.28h-5.28zm-1-13h7.28v-3.28h-7.28c0 0 0 3.28 0 3.28zm18.64 0.72h-8c-0.2 0-0.36-0.16-0.36-0.36v-4c0-0.2 0.16-0.36 0.36-0.36h3.64v-6.28h-3.1q-0.21-0.01-0.32-0.18-0.09-0.18 0-0.36l3.47-6c0.13-0.22 0.49-0.22 0.62 0l3.46 6q0.1 0.18 0 0.36-0.1 0.17-0.31 0.18h-3.1v6.28h3.64c0.2 0 0.36 0.16 0.36 0.36v4c0 0.2-0.16 0.36-0.36 0.36zm-7.64-0.72h7.28v-3.28h-7.28zm0.8-11h5.68l-2.84-4.92zm-15.16 11.72h-8c-0.2 0-0.36-0.16-0.36-0.36v-4c0-0.2 0.16-0.36 0.36-0.36h3.64v-6.3c-1.68-0.18-3-1.61-3-3.34 0-1.85 1.51-3.36 3.36-3.36 1.85 0 3.36 1.51 3.36 3.36 0 1.73-1.32 3.16-3 3.34v6.3h3.64c0.2 0 0.36 0.16 0.36 0.36v4c0 0.2-0.16 0.36-0.36 0.36zm-7.64-0.72h7.28v-3.28h-7.28zm3.64-16.28c-1.46 0-2.64 1.18-2.64 2.64 0 1.46 1.18 2.64 2.64 2.64 1.46 0 2.64-1.18 2.64-2.64 0-1.46-1.18-2.64-2.64-2.64z"/>
	<path id="_Transparent_Rectangle" fill-rule="evenodd" class="s1" d="m0 0h32v32h-32z"/>
</svg>