<svg version="1.2" xmlns="http://www.w3.org/2000/svg" viewBox="0 0 64 64" width="64" height="64">
	<title>google-cloud-platform</title>
	<style>
		.s0 { fill: #ea4335 } 
		.s1 { fill: #4285f4 } 
		.s2 { fill: #34a853 } 
		.s3 { fill: #fbbc05 } 
	</style>
	<g id="Folder 1">
		<path class="s0" d="m40.3 20.1h2l5.5-5.5 0.3-2.4c-3.2-2.8-7-4.7-11.2-5.6-4.1-0.9-8.4-0.8-12.4 0.4-4 1.3-7.7 3.5-10.7 6.5-2.9 3-5 6.8-6.1 10.8q0.2-0.1 0.4-0.1 0.3-0.1 0.5-0.1 0.3 0 0.5 0 0.3 0 0.5 0.1l11.1-1.8c0 0 0.5-0.9 0.8-0.9 1.2-1.3 2.6-2.3 4.2-3.1 1.5-0.8 3.2-1.2 5-1.3 1.7-0.2 3.4 0 5.1 0.5 1.7 0.6 3.2 1.4 4.6 2.5z"/>
		<path class="s1" d="m55.7 24.3q-0.5-1.7-1.2-3.4-0.8-1.6-1.7-3.2-1-1.5-2.1-2.9-1.2-1.4-2.5-2.6l-7.8 7.8q1.2 1 2.2 2.2 0.9 1.3 1.6 2.7 0.6 1.4 1 2.9 0.3 1.6 0.3 3.1v1.4c1.8 0 3.5 0.7 4.8 2 1.3 1.3 2.1 3.1 2.1 4.9 0 1.8-0.8 3.6-2.1 4.9-1.3 1.3-3 2-4.8 2h-13.8l-1.4 1.4v8.3l1.4 1.3h13.8c3.8 0.1 7.6-1.1 10.7-3.4 3.1-2.3 5.4-5.5 6.5-9.2 1.2-3.7 1.1-7.6-0.2-11.2-1.2-3.7-3.6-6.8-6.8-9z"/>
		<path class="s2" d="m17.8 57.1h13.8v-11.1h-13.8q-0.3 0-0.7 0-0.4-0.1-0.7-0.1-0.4-0.1-0.7-0.2-0.4-0.1-0.7-0.3l-1.9 0.6-5.6 5.5-0.5 2q1.2 0.8 2.5 1.5 1.2 0.7 2.6 1.2 1.4 0.4 2.8 0.6 1.5 0.3 2.9 0.3z"/>
		<path class="s3" d="m17.8 21.2c-3.7 0-7.3 1.2-10.4 3.4-3 2.2-5.3 5.3-6.5 8.8-1.2 3.6-1.2 7.4-0.1 11 1.1 3.6 3.2 6.7 6.2 9l8-8c-2.1-0.9-3.5-2.8-3.9-5.1-0.4-2.2 0.3-4.5 1.9-6.1 1.6-1.6 3.9-2.3 6.1-1.9 2.2 0.4 4.1 1.9 5 4l8-8q-1.2-1.7-2.8-3-1.6-1.3-3.5-2.2-1.8-0.9-3.9-1.4-2-0.5-4.1-0.5z"/>
	</g>
	<g>
	</g>
</svg>